<svg width="50" height="50" viewBox="0 0 50 50" fill="none" xmlns="http://www.w3.org/2000/svg">
<rect width="50" height="50" rx="3" fill="white"/>
<path d="M38.8007 27.937C39.0041 26.9993 39.1305 26.0013 39.1305 25.0033C39.1305 17.4012 32.6819 11.2525 24.7248 11.2525C23.6793 11.2525 22.6408 11.3664 21.6514 11.5673C20.3182 10.5827 18.6622 10 16.8589 10C12.5225 10 9 13.3624 9 17.5017C9 19.223 9.61047 20.8038 10.6349 22.0697C10.4314 23.0074 10.3051 24.0054 10.3051 25.0033C10.3051 32.6055 16.7536 38.7542 24.7108 38.7542C25.7563 38.7542 26.7948 38.6403 27.7842 38.4394C29.1174 39.4173 30.7734 40 32.5697 40C36.9061 40 40.4286 36.6376 40.4286 32.4983C40.4356 30.7837 39.8251 29.2029 38.8007 27.937ZM25.1458 34.0656C20.5428 34.0656 16.6905 32.1098 16.6905 29.712C16.6905 28.6403 17.322 27.6624 18.7605 27.6624C20.9497 27.6624 21.1532 30.6698 24.9423 30.6698C26.7457 30.6698 27.9105 29.9062 27.9105 28.9082C27.9105 27.6557 26.7878 27.4615 24.9634 27.0328C20.5778 26.0013 16.6975 25.5593 16.6975 21.1922C16.6975 17.2271 20.8094 15.7602 24.3529 15.7602C28.2192 15.7602 32.1276 17.2271 32.1276 19.4709C32.1276 20.6028 31.3277 21.6008 30.0015 21.6008C28.0157 21.6008 27.9526 19.357 24.7388 19.357C22.9355 19.357 21.7918 19.8259 21.7918 20.864C21.7918 22.1902 23.2513 22.3242 26.6404 23.0743C29.5454 23.6973 33.0047 24.8694 33.0047 28.2719C33.0047 32.2304 28.9981 34.0656 25.1458 34.0656Z" fill="black"/>
</svg>
