<svg width="50" height="50" viewBox="0 0 50 50" fill="none" xmlns="http://www.w3.org/2000/svg">
<rect width="50" height="50" rx="3" fill="white"/>
<path d="M41.2995 16.7554C40.9077 15.2869 39.7593 14.1293 38.3029 13.7339C35.6423 13 24.9996 13 24.9996 13C24.9996 13 14.3574 13 11.6968 13.7061C10.2684 14.1011 9.09197 15.2871 8.70017 16.7554C8 19.4376 8 25 8 25C8 25 8 30.5905 8.70017 33.2446C9.09238 34.7129 10.2404 35.8704 11.697 36.2659C14.3854 37 25 37 25 37C25 37 35.6423 37 38.3029 36.2939C39.7595 35.8987 40.9077 34.7411 41.2999 33.2728C41.9999 30.5905 41.9999 25.0282 41.9999 25.0282C41.9999 25.0282 42.0279 19.4376 41.2995 16.7554ZM21.6112 30.1388V19.8612L30.4611 25L21.6112 30.1388Z" fill="black"/>
</svg>
