<svg width="50" height="50" viewBox="0 0 50 50" fill="none" xmlns="http://www.w3.org/2000/svg">
<rect width="50" height="50" rx="3" fill="white"/>
<path d="M32.1988 29.5642C30.4473 30.5834 28.0373 30.9876 26.4455 31.1399L27.7816 32.3466L32.6591 36.8159C34.4426 38.4911 31.5404 41.1095 29.7377 39.4928C28.5167 38.3564 26.7268 36.7163 24.8602 35.0059L19.9826 39.4869C18.1799 41.0977 15.2777 38.456 17.0804 36.81C18.3205 35.6737 20.0913 34.0335 21.9579 32.3407L23.2748 31.134C21.7022 30.9818 19.2539 30.601 17.4831 29.5584C15.3991 28.3283 14.485 27.6078 15.2905 26.1024C15.7635 25.2472 17.0612 24.5267 18.7808 25.7685C18.7808 25.7685 21.1013 27.4614 24.8474 27.4614C28.5934 27.4614 30.9139 25.7685 30.9139 25.7685C32.6335 24.5326 33.9248 25.2472 34.4043 26.1024C35.197 27.6078 34.2828 28.3283 32.1988 29.5642ZM16.5498 17.5972C16.5498 13.3974 20.2767 10 24.841 10C29.4053 10 33.1322 13.3974 33.1322 17.5972C33.1322 21.7795 29.4053 25.1769 24.841 25.1769C20.2767 25.1769 16.5498 21.7795 16.5498 17.5972ZM20.7689 17.5972C20.7689 19.6532 22.5972 21.3285 24.841 21.3285C27.0848 21.3285 28.913 19.6532 28.913 17.5972C28.913 15.5237 27.0848 13.8484 24.841 13.8484C22.5972 13.8484 20.7689 15.5237 20.7689 17.5972Z" fill="black"/>
</svg>
