<svg width="50" height="50" viewBox="0 0 50 50" fill="none" xmlns="http://www.w3.org/2000/svg">
<rect width="50" height="50" rx="3" fill="white"/>
<path d="M37.8074 16.3562C37.9958 15.575 37.8074 15 36.9009 15H33.9014C33.1375 15 32.7861 15.4937 32.5977 16.0437C32.5977 16.0437 31.0699 20.6125 28.9106 23.575C28.213 24.4312 27.8921 24.7063 27.5102 24.7063C27.3218 24.7063 27.0315 24.4312 27.0315 23.65V16.3562C27.0315 15.4187 26.8176 15 26.1861 15H21.4704C20.9917 15 20.7065 15.4375 20.7065 15.8438C20.7065 16.7313 21.7861 16.9375 21.8981 19.4375V24.8625C21.8981 26.05 21.725 26.2687 21.3431 26.2687C20.3245 26.2687 17.8495 21.6813 16.3829 16.4313C16.0875 15.4125 15.7972 15 15.0282 15H12.0287C11.1731 15 11 15.4937 11 16.0437C11 17.0187 12.0185 21.8625 15.7412 28.2625C18.2213 32.6313 21.7148 35 24.8926 35C26.8023 35 27.0366 34.475 27.0366 33.5688C27.0366 29.3938 26.8634 29 27.8208 29C28.2639 29 29.0278 29.275 30.8102 31.3813C32.8472 33.8813 33.1833 35 34.3241 35H37.3236C38.1792 35 38.612 34.475 38.3625 33.4375C37.7921 31.2563 33.937 26.7688 33.7639 26.4688C33.3208 25.7688 33.4481 25.4563 33.7639 24.8313C33.769 24.825 37.4306 18.5 37.8074 16.3562Z" fill="black"/>
</svg>
